HIERARCHY
ROOT Hips
{
	OFFSET 0.00000 0.00000 0.00000
	CHANNELS 6 Xposition Yposition Zposition Zrotation Yrotation Xrotation 
	JOINT LHipJoint
	{
		OFFSET 0 0 0
		CHANNELS 3 Zrotation Yrotation Xrotation
		JOINT LeftHip
		{
			OFFSET 1.59801 -1.77853 0.57028
			CHANNELS 3 Zrotation Yrotation Xrotation
			JOINT LeftKnee
			{
				OFFSET 2.39439 -6.57854 0.00000
				CHANNELS 3 Zrotation Yrotation Xrotation
				JOINT LeftAnkle
				{
					OFFSET 2.69334 -7.39989 0.00000
					CHANNELS 3 Zrotation Yrotation Xrotation
					JOINT LeftToe
					{
						OFFSET 0.09553 -0.26245 1.73747
						CHANNELS 3 Zrotation Yrotation Xrotation
						End Site
						{
							OFFSET 0.00000 -0.00000 0.89391
						}
					}
				}
			}
		}
	}
	JOINT RHipJoint
	{
		OFFSET 0 0 0
		CHANNELS 3 Zrotation Yrotation Xrotation
		JOINT RightHip
		{
			OFFSET -1.54704 -1.77852 0.57028
			CHANNELS 3 Zrotation Yrotation Xrotation
			JOINT RightKnee
			{
				OFFSET -2.40286 -6.60180 0.00000
				CHANNELS 3 Zrotation Yrotation Xrotation
				JOINT RightAnkle
				{
					OFFSET -2.63873 -7.24984 0.00000
					CHANNELS 3 Zrotation Yrotation Xrotation
					JOINT RightToe
					{
						OFFSET -0.15631 -0.42945 1.84436
						CHANNELS 3 Zrotation Yrotation Xrotation
						End Site
						{
							OFFSET -0.00000 -0.00000 0.95734
						}
					}
				}
			}
		}
	}
	JOINT lowerback
	{
		OFFSET 0 0 0
		CHANNELS 3 Zrotation Yrotation Xrotation
		JOINT Chest
		{
			OFFSET -0.00436 1.89866 -0.04018
			CHANNELS 3 Zrotation Yrotation Xrotation
			JOINT Chest2
			{
				OFFSET 0.02031 1.88273 0.09634
				CHANNELS 3 Zrotation Yrotation Xrotation
				JOINT lowerneck
				{
					OFFSET 0 0 0
					CHANNELS 3 Zrotation Yrotation Xrotation
					JOINT Neck
					{
						OFFSET -0.13105 1.89371 0.23083
						CHANNELS 3 Zrotation Yrotation Xrotation
						JOINT Head
						{
							OFFSET 0.17062 1.83990 -0.54062
							CHANNELS 3 Zrotation Yrotation Xrotation
							End Site
							{
								OFFSET 0.04576 1.94782 -0.21839
							}
						}
					}
				}
				JOINT LeftCollar
				{
					OFFSET 0 0 0
					CHANNELS 3 Zrotation Yrotation Xrotation
					JOINT LeftShoulder
					{
						OFFSET 3.12424 1.09204 0.22226
CHANNELS 3 Zrotation Xrotation Yrotation
						JOINT LeftElbow
						{
OFFSET 0 -5.292770 0.000000
CHANNELS 3 Zrotation Xrotation Yrotation
							JOINT LeftWrist
							{
OFFSET 0 -2.852260 0.000000
CHANNELS 3 Zrotation Xrotation Yrotation
								JOINT lhand
								{
									OFFSET 0 0 0
CHANNELS 3 Zrotation Xrotation Yrotation
									JOINT LFingers
									{
OFFSET 0 -0.602100 0.000000
CHANNELS 3 Zrotation Xrotation Yrotation
										End Site
										{
OFFSET 0 -0.485430 0.000000
										}
									}
								}
								JOINT LThumb
								{
OFFSET 0 0.000000 0.000000
CHANNELS 3 Zrotation Xrotation Yrotation
									End Site
									{
OFFSET 0 -0.492840 0.492840
									}
								}
							}
						}
					}
				}
				JOINT RightCollar
				{
					OFFSET 0 0 0
					CHANNELS 3 Zrotation Yrotation Xrotation
					JOINT RightShoulder
					{
						OFFSET -2.91709 1.01504 0.30199
CHANNELS 3 Zrotation Xrotation Yrotation
						JOINT RightElbow
						{
OFFSET 0 -5.133040 0.000000
CHANNELS 3 Zrotation Xrotation Yrotation
							JOINT RightWrist
							{
OFFSET 0 -2.743050 0.000000
CHANNELS 3 Zrotation Xrotation Yrotation
								JOINT rhand
								{
									OFFSET 0 0 0
CHANNELS 3 Zrotation Xrotation Yrotation
									JOINT RFingers
									{
OFFSET 0 -0.767980 0.000000
CHANNELS 3 Zrotation Xrotation Yrotation
										End Site
										{
OFFSET 0 -0.619160 0.000000
										}
									}
								}
								JOINT RThumb
								{
OFFSET 0 0.000000 0.000000
CHANNELS 3 Zrotation Xrotation Yrotation
									End Site
									{
OFFSET 0 -0.628620 0.628620
									}
								}
							}
						}
					}
				}
			}
		}
	}
}
MOTION
Frames: 5
Frame Time: 0.008333333333333333
0.296373 17.454561 -0.059491 -1.362175 -0.001034 4.016139 0.000000 0.000000 0.000000 -19.191444 -18.623677 2.652906 0.651989 5.165003 14.379750 0.370481 10.271254 -19.425357 0.707586 -5.375920 -14.984007 0.000000 0.000000 0.000000 0.000000 0.000000 0.000000 0.000000 0.000000 0.000000 0.000000 0.000000 0.000000 0.000000 0.000000 0.000000 -0.948525 0.340166 -0.301994 0.834157 0.463299 -3.636219 1.376521 0.275294 -3.582458 -13.951012 -10.542026 -17.361137 12.715090 -15.550948 29.892188 4.616219 -6.679688 15.695899 0.000000 0.000000 0.000000 -2.075008 0.973656 -30.706569 8.032154 -13.604973 0.959643 2.233726 26.354352 -25.398621 0.000000 0.000000 0.000000 -7.125000 0.000000 0.000000 -28.193394 53.084889 5.989844 0.000000 0.000000 0.000000 -1.698356 9.044935 30.577749 -13.008907 -21.300279 -2.456505 0.484295 6.494027 -13.444301 0.000000 0.000000 0.000000 7.125000 0.000000 0.000000 18.936449 16.942061 13.351401
0.299520 17.454829 -0.052470 -1.149462 0.140829 4.008067 0.000000 0.000000 0.000000 -19.433588 -18.611628 2.818943 0.628191 5.071647 14.113132 0.341063 10.294367 -19.126017 0.738139 -5.488658 -15.307660 0.000000 0.000000 0.000000 0.000000 0.000000 0.000000 0.000000 0.000000 0.000000 0.000000 0.000000 0.000000 0.000000 0.000000 0.000000 -1.042516 0.327357 -0.189664 0.765228 0.441674 -3.722334 1.358078 0.267793 -3.734909 -13.941571 -10.521498 -17.289137 12.628251 -15.515964 29.996102 4.591891 -6.676706 15.710376 0.000000 0.000000 0.000000 -1.990411 1.103902 -31.012023 8.051572 -13.636454 0.964220 2.004799 26.076042 -26.605624 0.000000 0.000000 0.000000 -7.125000 0.000000 0.000000 -29.211528 54.100294 6.990243 0.000000 0.000000 0.000000 -1.655319 9.117204 29.753159 -12.951902 -21.216687 -2.435833 0.780119 7.063556 -13.588844 0.000000 0.000000 0.000000 7.125000 0.000000 0.000000 19.115747 16.811351 13.551951
0.298440 17.452788 -0.042923 -1.230802 0.160954 3.999189 0.000000 0.000000 0.000000 -19.370461 -18.657082 2.847056 0.632715 5.089406 14.163861 0.364990 10.267407 -19.361696 0.718969 -5.414196 -15.094749 0.000000 0.000000 0.000000 0.000000 0.000000 0.000000 0.000000 0.000000 0.000000 0.000000 0.000000 0.000000 0.000000 0.000000 0.000000 -0.956285 0.337507 -0.302220 0.825536 0.459449 -3.665279 1.372037 0.273887 -3.612298 -13.897544 -10.527791 -17.236922 12.557829 -15.523066 30.016435 4.554985 -6.685054 15.695758 0.000000 0.000000 0.000000 -2.019427 0.920847 -30.728586 8.004428 -13.560101 0.953165 1.847671 26.651553 -26.807152 0.000000 0.000000 0.000000 -7.125000 0.000000 0.000000 -29.499582 54.246365 7.178664 0.000000 0.000000 0.000000 -1.727830 9.025147 29.653206 -12.951154 -21.215577 -2.435619 0.981594 6.993903 -13.593965 0.000000 0.000000 0.000000 7.125000 0.000000 0.000000 19.246870 16.810496 13.657148
0.298335 17.454175 -0.042638 -1.255355 0.223101 4.027219 0.000000 0.000000 0.000000 -19.314794 -18.614005 2.760015 0.637198 5.107045 14.214085 0.374080 10.170641 -19.357979 0.738957 -5.490464 -15.313234 0.000000 0.000000 0.000000 0.000000 0.000000 0.000000 0.000000 0.000000 0.000000 0.000000 0.000000 0.000000 0.000000 0.000000 0.000000 -0.852327 0.358037 -0.277148 0.827950 0.488721 -3.667282 1.315228 0.285352 -3.628460 -13.905424 -10.533616 -17.236835 12.634194 -15.565534 30.062681 4.582116 -6.693446 15.736434 0.000000 0.000000 0.000000 -1.983309 0.867517 -31.114575 7.992030 -13.539946 0.950276 2.023812 26.541980 -26.557066 0.000000 0.000000 0.000000 -7.125000 0.000000 0.000000 -29.160377 54.061432 6.947913 0.000000 0.000000 0.000000 -1.739471 9.121148 30.000396 -13.086641 -21.414014 -2.484854 1.027915 6.482666 -13.542211 0.000000 0.000000 0.000000 7.125000 0.000000 0.000000 19.282491 16.860198 13.663211
0.298153 17.452200 -0.040208 -1.170458 0.232429 4.001044 0.000000 0.000000 0.000000 -19.406044 -18.533041 2.831932 0.625910 5.062566 14.087069 0.369779 10.079636 -19.213814 0.696257 -5.332915 -14.860729 0.000000 0.000000 0.000000 0.000000 0.000000 0.000000 0.000000 0.000000 0.000000 0.000000 0.000000 0.000000 0.000000 0.000000 0.000000 -0.930906 0.333131 -0.260452 0.843207 0.454339 -3.646509 1.375949 0.270725 -3.616200 -13.899058 -10.488401 -17.222309 12.634311 -15.501383 30.073256 4.597264 -6.666464 15.725456 0.000000 0.000000 0.000000 -1.982520 0.801412 -31.188193 7.947994 -13.468514 0.939973 2.241233 26.606785 -26.803865 0.000000 0.000000 0.000000 -7.125000 0.000000 0.000000 -29.126129 54.316474 7.126999 0.000000 0.000000 0.000000 -1.845306 9.267916 30.417833 -13.232305 -21.626628 -2.538264 0.914242 6.171910 -13.653582 0.000000 0.000000 0.000000 7.125000 0.000000 0.000000 19.196775 16.752886 13.642843
